<svg viewBox="0 0 200 187" xmlns="http://www.w3.org/2000/svg" xmlns:xlink="http://www.w3.org/1999/xlink">
    <mask id="mask0" mask-type="alpha">
        <path d="M 190.3 36.5 C 206.6 62.1 201.3 102.8 182.3 134.2 C 163.3 165.5 130.8 187.6 100.2 186.4 C 69.6 185.3 41 161 21.7 129.4 C 2.5 97.9 -7.5 59.1 6.7 34.5 C 21 10.1 59.7 -0.1 98 0 C 136.2 0.3 174.2 10.9 190.3 36.5 Z"/>
    </mask>
    <g transform="matrix(1,0,0,1,0,0)">
        <g mask="url(#mask0)">
            <path d="M 192.3 42.5 C 208.6 68.1 203.3 108.8 184.3 140.2 C 165.3 171.5 132.8 193.6 102.2 192.4 C 71.6 191.3 43 167 23.7 135.4 C 4.5 103.9 -5.5 65.1 8.7 40.5 C 23 16.1 61.7 5.9 100 6 C 138.2 6.3 176.2 16.9 192.3 42.5 Z"/>
            <image x="2" y="6" href=""/>
        </g>
    </g>
</svg>
